<svg xmlns="http://www.w3.org/2000/svg" width="86" height="100" fill="#646464" fill-rule="evenodd" xmlns:v="https://vecta.io/nano"><path d="M0 0v1 29.476 1h1 26.55 1v-1V1 0h-1H1 0zm27.55 30.476H1V1h26.55v29.476zM42.531 0v1 29.476 1h1 40.522 1v-1V1 0h-1-40.521-1zm41.522 30.476H43.531V1h40.522v29.476zM6.422 76.865l21.128 13.52 1 .64v-1.187-41.959-1h-1H1 0v1 16.713c0 5.07 2.455 9.752 6.422 12.273zM1 47.879v16.713c0 4.759 2.305 9.107 5.958 11.429l.003.002L27.55 89.198V47.879H1zm77.057 28.153h0L43.496 98.131V47.889h40.522v16.713c0 4.74-2.297 9.09-5.96 11.43zM42.496 99.958l1-.639 35.1-22.443c3.975-2.539 6.422-7.221 6.422-12.273V47.889v-1h-1-40.521-1v1 50.882 1.187z"/><path d="M14 14.5h-.5v.5 16h1V15.5H28v-1H14zm43 0h-.5v.5 16h1V15.5h27v-1H57zm-43.5 47h.5 14v1H14.5v16.68c0 .932.075 1.85.218 2.741l-.987.159c-.152-.944-.231-1.915-.231-2.9V62v-.5zm43.502 1l-.502-.002V63v.008V90.5h1V63.502l3.114.014h.002H85v-1H60.617l-3.615-.016z"/></svg>