<svg xmlns="http://www.w3.org/2000/svg" width="115" height="122" fill="none" stroke="#646464" xmlns:v="https://vecta.io/nano"><path d="M66.134 60.924c-.31.716-.888 2.104-.648 2.701s1.414.86 2.037.908m8.295-1.054c.191.172-.247 1.561-.447 2.27m6.422-42.337l2.364 3.117M70.789 97.572c.364-.642 3.904-3.024 5.419-4.175m-14.837-3.541l2.622 4.332"/><path d="M75.599 90.946c.258-.601.832-3.205.545-4.779l-.664-3.292m1.376 10.16c1.757-.001 11.699 1.26 14.17 1.589M4.352 37.285c.125.455.206 1.902.787 1.985.465.067 1.963.166 2.654.207l-.58 5.916c0 .414.166 2.979 1.534 3.931m77.796-9.885c.736-.291 1.929-.925 2.434-1.205l.996-3.995m-10.25-4.776c.299.818 2.145 6.942 3.03 9.902-.808 1.333-2.546 4.008-3.03 4.045m-68.95 14.237c.351 1.052 2.574 5.723 2.925 6.775s.586 2.512.703 2.979 3.043-.058 4.33 1.227 3.862 6.308 4.33 7.768 3.335 8.702 3.803 9.929 1.287 2.57 1.17 4.439-1.404 3.913-1.755 4.263c-.281.28-.819 2.064-1.053 2.92m-1.579-.058c.186-.982 1.052-3.757 1.461-5.023-.956-1.577-2.949-5.269-3.276-7.418-.41-2.687 1.171-3.329-.936-5.723s-6.262-4.031-7.257-6.133-1.579-2.453-1.286-3.913 0-2.57 0-3.797c0-.981-.624-2.706-.936-3.446l-1.698-3.037m65.957 9.38c2.932.122 10.712-.447 14.583-1.283m13.182-2.819c.645-.122 2.081-.45 2.668-.784m-42.73 10.449c.076-1.448.915-4.803 1.832-5.337.734-.426 1.834-.178 2.292 0M41.84 56.123c3.132 1.905 11.839 6.022 14.207 6.708 1.894.549 4.557 1.601 5.652 2.058-.356 2.262-1.298 7.044-2.215 8.081l-1.909 2.135m10.051-9.361c-1.887-.524-3.863-.972-3.444-2.646l.755-2.665c.154-.524.614-1.274 1.33-1.065m10.07 2.863c.523.052 1.258.419.838 1.831s-.575 2.563-.838 2.93c-.21.293-.578.122-.735 0M35.283 8.221c-.586.241-4.309 5.277-4.896 6.275m-4.719 36.115c.15-1.775-.062-2.287 1.265-2.497s3.167 0 3.921 0 .694.452.844.482 4.131-.482 4.583-.482.784.06 1.086.271M14.836 21.1c-.389.186-1.237.904-1.512 2.283L9.61 41.123m36.203-15.522l-8.465-1.085c-1.227.086-2.282-.199-2.681 1.395l-.685 3.359c-.086.683-.2 2.192 1.797 2.562s7.186 1.964 7.329 2.021-7.414 1.224-8.726 1.366-4.241.712-4.811 1.252M14.508 19.073l11.139-1.387c1.092-.099 2.2.396 3.887 1.387"/><path d="M24.32 56.662c5.616 3.432 18.085 10.913 23.036 13.383s8.939 4.232 10.315 4.804l5.845-.686.688 8.922c0 .343 1.375 5.147 3.094 5.834M1.973 58.034c3.094-.343 13.065-1.373 32.663-2.059s41.946 1.029 44.009 0 5.157-2.745 6.189-4.461 1.706-3.855 6.181-4.13c5.391-.331 11.698-.331 12.73-.331s3.254.331 4.459 6.029c.855 4.043 4.136 16.963 4.136 18.336s-.344 4.461-2.063 4.804-5.157 1.029-5.845 1.373c-.55.275-1.948-.572-2.407-.686M11.681 40.934l-2.029.201c-.283 1.086-.561 2.784-.666 3.36-.131.72-.459 3.078 0 4.584s.459 1.899 1.05 1.899h2.493l.59-.589 11.743-.589.459.589M9.88 57.691c.115.572.069 1.784-1.031 2.059s-3.897-.343-5.157-.686c-.917-.343-2.682-1.304-2.407-2.402l1.032-4.118c-.688 0-1.858-.686-1.032-3.432S4.15 38.359 5.067 34.699l1.719-5.834 5.501-6.177c-.458-.801-1.1-2.608 0-3.432 1.375-1.029 7.22-7.55 7.908-7.55s1.375 1.373 3.094 0c1.375-1.098 4.47-2.974 5.845-3.775.573-.458 2.544-1.647 5.845-2.745 4.126-1.373 11.346-5.491 27.162-3.775s21.661 5.491 24.755 7.893 3.848 3.138 4.814 4.118c.539.547 3.157 3.591 4.188 4.964s1.657 2.242 2 2.929c.275.549.49 1.003.719 1.346l4.438.369 1.031 3.089-.688.343c.344.572 1.169 1.853 1.72 2.402s2.979 5.948 4.125 8.579c.573 1.945 1.719 5.971 1.719 6.52 0 .686-1.375 1.373-1.031 2.402s0 2.059 1.031 2.402 1.376 0 1.376 1.029c0 .824 1.146 11.782 1.719 17.158-.573.229-1.719.892-1.719 1.716M75.22 103.033l18.358-1.391a37.23 37.23 0 0 0 2.19-.398c.77-1.815 2.365-5.651 2.588-6.478.279-1.033.398.596-.319-1.749s-1.115-3.458-.557-4.412 2.469-2.266 2.748-3.418c.223-.922.836-5.313 1.115-7.393"/><path d="M66.609 40.875c1.948-2.631 4.487-6.898 5.501-8.922 1.375-2.745 2.865-6.749 3.438-7.893 1.719-.458 6.258-1.441 10.658-1.716s10.315.001 12.721.344m4.469 3.775l-16.503-.343c-.688-.801-2.201-2.471-2.751-2.745s-1.834-.114-2.407 0c-3.209 4.461-9.627 13.727-9.627 15.099 0 1.716-3.438 4.804-2.407 5.834s2.407 1.029 4.47 1.373c1.65.274 5.603.564 7.093.678m-14.653-5.482c1.031 0 1.719.686.688 1.716-.825.824-2.407 1.487-3.094 1.716-.573.458-1.375 1.579 0 2.402 1.719 1.029 7.738 1.716 10.659 1.716 1.087 0 4.126.686 6.189-1.716a116.31 116.31 0 0 0 4.126-5.148c2.865-.572 8.445-.687 13.307-.688 3.038-.001 5.833.345 7.323.688.458 1.258 1.444 3.844 1.719 4.118s1.719.114 2.407 0m-95.588-26.77c-.55 1.098.229 1.83.688 2.059l.686.686-4.517 19.348c.663 0 2.373-.189 5.439-.368l5.955-.449 1.375.343c.344-1.144 1.1-4.118 1.375-6.863s2.636-10.752 3.782-14.413l1.031-.343 2.07-4.395-3.763.003c-1.168.114-2.639 0-4.839.274s-6.189 1.03-7.908 1.373l-1.374 2.745z"/><path d="M27.414 8.961c.229 0 .825-.069 1.375-.343.688-.343 5.502-.686 6.876-.343 1.099.275 1.375.572 1.375.686-.343.686-1.305 2.402-2.406 3.775-1.375 1.716-.688 1.716 1.375 2.059s1.719 1.716 1.375 2.745l-1.375 3.775 4.47 1.716 6.533 2.059-.541 5.131c-.259 1.696-1.521 5.507-1.865 5.85-.275.275-6.991 1.258-10.315 1.716-1.019.263-2.008.291-2.121 2.294s-.509 5.98-.593 6.374-.283 1.495-.678 1.58"/><path d="M9.012 44.409c2.432.18 5.586.044 8.738-.405s3.062-.764 3.873-.539 2.703 2.338 3.288 2.653 2.748-.134 3.153-1.124 1.576-9.71 2.477-13.531l2.748-11.194c.631.315 2.081.998 2.838 1.214"/><path d="M31.941 14.559c.99-.045 2.567.135 2.297.989-.225.71-.512 2.851-.913 3.681m0 0c-.081.168-.167.282-.258.32-.54.225-2.027.899-2.297 1.663s-2.658 9.081-2.793 9.62-.044 2.293.541 3.506a9.51 9.51 0 0 1 .765 2.473H27.03c-.24-1.199-.648-3.956-.36-5.395s1.862-7.223 2.612-9.935c.241-.524.876-1.645 1.488-1.933s1.958-.333 2.555-.32zm-19.629 2.718c-.578.429-1.814 1.664-2.133 3.169-.398 1.881-1.837 5.595-1.837 6.883s.607 4.053.607 5.786M37.559 50.17l25.897-.495c6.946.099 12.602.396 14.239 0 1.31-.317 2.563-1.783 3.026-2.476m1.857 6.706c1.079 1.645 6.661 11.269 8.754 15.067s5.582 10.762 5.962 10.888 1.205-1.076 2.03-1.456 5.074-1.962 5.962-2.849 2.22-2.532 2.094-3.482c-.102-.76-1.438-2.722-2.094-3.609-2.008-4.073-6.418-12.813-7.992-15.194s-3.023-3.946-3.552-4.431m-7.484.38c2.22-.19 9.644-.441 12.181-.632s4.058-.001 4.629 1.899 4.884 20.574 5.265 21.714c.304.912-.677 1.308-1.205 1.393M22.04 40.371c-.393.982-.919 2.685-.459 3.078m2.169-3.002c1.016.31 1.752.339 1.695 1.213l-.311 4.597"/><path d="M45.545 25.318c.056.512-.464 3.743-.836 4.967s-1.147 3.075-1.518 3.644m32.497 1.064c.743-1.438 1.814-2.976 4.185-6.217.676-.926 1.264-1.974 2.231-1.715s1.209 1.018 1.58 1.714l2.928 9.882c-.945 1.407-3.114 4.324-4.23 4.732-1.394.51-3.347.417-6.183-1.438s-1.255-5.521-.512-6.958zM37.156 50.069l19.641-4.583 8.894-1.853m1.856-1.377c-4.455.31-15.641 2.686-20.678 3.835l-9.714 2.111m.633 2.079c-.544.12.03.36-1.569.511l-4.192.512c-.663.181-.3 1.084-1.386 1.264l-3.166.421c-.482-.03-1.507-.301-1.718-.993-.169-.554-.21-1.234-.21-1.505"/><path d="M31.348 48.504c-.79.963-.1 2.558.172 3.22m5.276-3.431c-.152.602-.3 1.623.332 2.134m6.609-21.206c0 1.032-.903 1.924-2.085 1.924s-2.085-.891-2.085-1.924.903-1.924 2.085-1.924 2.085.891 2.085 1.924zM30.704 8.898c.025.043.068.213-.145.551-.198.315-.561.666-1.053.953s-.977.428-1.349.445c-.399.019-.526-.102-.551-.145s-.068-.213.145-.551c.198-.315.561-.666 1.053-.953s.977-.428 1.349-.445c.399-.019.526.102.551.145zm48.445 31.948c-1.007.246-2.088-.418-2.369-1.562s.369-2.233 1.376-2.479 2.088.418 2.369 1.562-.369 2.233-1.376 2.479zm-2.274 54.783c2.424-.053 6.636-.842 9.85-.894 2.571-.042 8.726-.368 11.483-.525m-78.602 20.815c.85 2.09 3.095 5.484 6.707 5.908s14.175-1.273 17.211-2.363 6.738-2.757 8.195-3.151 1.912-.303 2.125-.152 1.123.909 2.519.455c1.117-.364 1.72-.737 1.882-.879.212-.303.637-1.005.637-1.393 0-.485.121-.637.82-.546s2.307-.272 3.278-.666 1.609-.333 1.761-.333 2.276-1.152 2.58-1.425-.091-.515.607-.666 4.249-2.243 4.614-2.394.759-.787.88-1.424c.097-.509 1.335-2.171 1.943-2.938l2.641-3.818s-1.194-3.736-1.943-5.483c.303-.172.953-.667 1.123-1.273.212-.757 0-2.938 0-4.453s-1.57-4.509-1.57-4.902-.467-.984-1.529-1.348-2.638-.536-4.398-.415-1.76.515-1.76.666-.091 5.938-.334 6.332c-.194.315-.445 1-.546 1.303-.071 1.05-.103 3.205.334 3.423s1.72.535 2.307.667m5.129-11.735c.03-2.15.728-15.269.728-16.056 0-.63-5.14-1.474-7.71-1.817l-.638 14.875c0 .703.425 3.625.638 4.999m9.902-27.751l-1.488 5.575-.759 2.241-6.499-1.765c-.643-.122-2.334-.641-2.993-.81l1.055-3.878c.073-.242.172-1.01.212-1.364m-47.673 54.701c1.295 1.492 1.792 3.182 8.767 2.734a77.05 77.05 0 0 0 13.743-2.174m9.075-3.792c-1.561.812-5.171 2.595-7.124 3.232a35.03 35.03 0 0 1-1.95.56m0 0c-2.234-2.201-10.654-9.262-13.494-10.505s-3.487 0-3.986 0c-.399 0-3.52 6.763-5.031 10.144m30.04-2.834c-1.595-1.79-10.512-9.746-16.291-10.74s-11.16.149-12.754 2.088-3.886 2.585-3.338 5.071l2.243 10.194"/><path d="M64.019 101.262l3.248 9.063m-3.066 1.711c-.54-.39-.57-1.142-1.923-.991s-2.977 1.261-3.127 1.381a1.2 1.2 0 0 0-.331 1.171m-7.636-5.674c.36.24 1.263.031 2.044-.359s1.533-1.111 1.834-.661 2.556 6.512 2.586 6.782-1.774 1.141-2.315 1.231c-.433.072-1.102.27-1.383.36m-2.982-7.292c-.24-.661-.119-1.59 1.956-2.581l5.742-3.001c.511-.15 2.345-1.14 3.217-1.35s6.825-2.971 7.426-3.212 1.233-.12 1.233-.66c0-.432-.661-2.461-.992-3.421m-15.784 11.405c1.173-.42 1.988.059 2.377.749s.871.752 1.983.272l1.684-.721c.291-.26.836-.984.691-1.8-.18-1.02-.992-1.38 0-2.07m2.526-.961c.781.15 1.052 1.05 1.263 1.47"/><path d="M69.311 109.184l-3.186-5.401c-.193-.48-.782-1.561-1.053-2.041l-.752.33m2.496 6.542l1.534-.751m-2.827-5.82c1.202.24 3.578-1.291 4.36-2.281.625-.792.861-2.09.901-2.641m-11.275 8.368c-.942.042-1.968.286-2.417.327s-1.31-.367-.286-1.593c.819-.981 1.625-1.526 1.926-1.676m-35.439.958c.926.065 7.579.298 8.507 0m11.29-.662c1.688-.132 9.402-1.685 11.686-3.37 1.828-1.348 2.902-1.861 3.211-1.949 1.037.132 3.383.264 4.469-.264s3.123-1.256 4.006-1.553c.508-.463 1.563-1.546 1.722-2.18"/><path d="M66.989 89.032c-.429-.364-1.155-.43-3.143 0l-8.277 2.081c-.463.253-1.25 1.004-.694 1.983.694 1.223.829 2.148 1.623 2.842.636.555 1.324 1.399 1.589 1.751m-3.044-4.097c-.926 1.156-6.189 2.873-11.652 3.7-4.37.661-8.177.584-9.535.463m33.398-8.682c.508-.159 1.66-1.2 1.757-.47s-.126 4.636-.38 4.858m-.576-11.504c.312 1.264.596 3.079.747 4.129.136.951.159 2.074.232 2.581m.286 1.55c1.145.127 3.215.699 4.486.731s1.844-.413 1.971 0 .286 2 .318 2.571M61.701 56.19c-.383 2.515.15 8.469.38 8.851s1.987 3.736 3.515 3.66m-51.081 1.738c-.351.818-.468.058-.878 0 0 .564.176 1.879.878 2.626a13.51 13.51 0 0 0 3.219 2.57c1.124.654 2.926 2.336 3.687 3.095l.585-1.46-3.043-5.429c-1.17-1.927-3.335-2.979-4.096-2.92s0 .701-.351 1.519zm7.493 13.257c.584-1.168 2.223-2.627 3.159-1.693m-.058 10.745c.82.643 1.757 1.402 2.283.701m55.311-53.99l3.634-.838m21.525-3.811h-1.165l-.605-.884h-4.006l-1.63 1.395-.559-1.162h-4.286l-1.77 1.162-.512-1.162h-3.54c-.481.45-1.945 1.465-2.877 1.8l-.154 3.269m19.238 2.322c.606-1.394.701-2.324 1.585-2.556.707-.186 1.101-.357 1.21-.419v-2.371M86.987 26.15l-3.116.243"/><path d="M89.828 29.084l1.268 3.895m3.213-3.895l1.268 3.895m2.95-4.053l1.268 3.895m2.951-3.895l1.268 3.895m-18.596-3.6l1.268 3.895M10.198 38.03l-2.071.787c-.193-1.462-.463-4.858 0-6.744l1.698-6.744M25.246 41.01c.747-.373 1.7-2.647 1.7-4.262m-13.309 4.095c.125-3.31 1.367-10.136 2.321-13.694.763-2.847 1.507-4.717 1.783-5.296 1.769-.221 5.737-.687 7.462-.786s2.929-.041 3.316 0m30.368 69.388l2.622 4.332"/><path d="M57.109 96.533c.929-.463 5.488-1.743 5.952-1.934s3.522-1.229 4.45-1.419M14.289 67.072l.311 2.307m-1.026 1.317c-.399-.133-1.182-.59-1.117-1.354m12.784-18.539c-2.94.089-7.946.575-10.081.807M5.133 53.195c-.528-1.418-.251-2.224 0-2.752s.808-.64 1.198-.695 1.198-.389 1.838-.278c.512.089.808.037.891 0m-3.927 3.669c.753.806 1.087.778 1.421.973s1.142.556 2.089.417l1.42-.195c.223-.38.663-1.306.64-1.974v-1.39"/><path d="M9.699 53.778c1.141.139 3.369 0 4.26 0s1.755-.472 2.089-1.167.668-1.612.668-2.112m-7.827-.696c-.613.667-1.172 1.389-.948 2.501s1.144 2.168 1.84 2.196m-8.715-3.809c.503.334 1.367.723 1.84.779m2.169-.999c-1.45-.028-2.062.167-2.09.834s-.112 1.195.501 1.362c.49.133 1.263.056 1.589 0"/></svg>