<svg xmlns="http://www.w3.org/2000/svg" width="88" height="122" fill="none" stroke="#646464" xmlns:v="https://vecta.io/nano"><path d="M15.238 18.264c.54 3.017 3.406 8.556 9.346 8.081s8.538-1.912 11.096-4.471c.913-.913 2.652-2.508 4.263-4.695"/><path d="M51.364 4.881c-1.099.941-8.976 8.754-13.437 14.902-2.459 3.389-3.647 6.494-4.173 8.343-.048.169-.046.347.1.444.54.356 2.252.908 3.474 1.497l1.872.916c1.011.511 2.27.445 2.979-.439l3.487-4.346m4.194-4.794c-.605 5.232-1.498 19.032-.885 29.806.766 13.467 10.412 18.022 18.626 23.932 1.717 1.002 3.129 2.116 3.208 3.627m12.052-.921c-4.584.86-18.816 1.528-25.122 1.337-5.045-.152-16.178-.063-21.114 0-2.866.287-7.922.979-9.145 3.272-1.529 2.867-.983 7.43-.983 11.729s-.19 8.217 4.109 10.033 9.267 1.242 10.891 1.051 27.036.286 30.762.477c2.981.153 6.847.701 8.407.956"/><path d="M37.586 79.471c.861 3.249.864 12.804.767 17.103-.078 3.439-.544 7.612-.767 9.268"/><path d="M1.091 41.44C.517 48.607 3.003 71.538 2.24 76.124v2.388c-.255 1.497-.842 4.777-1.148 5.924-.383 1.433.574 18.727.383 25.702-.153 5.58 1.146 6.657 1.815 6.497 3.63 1.242 15.4 3.841 33.437 4.3s31.908-1.656 36.589-2.771c.287-.191 1.013-.459 1.624 0 .764.573 4.872 1.242 6.401 0s-.86-5.351 0-13.186 2.102-25.033 1.624-28.091.764-19.492 3.344-36.499-5.015-28.109-6.315-30.329c-2.55-4.356-7.442-8.75-16.135-9.037s-8.393 2.069-16.409 6.196c-9.47 4.876-12.145 1.088-15.298-.918s-6.793-1.169-9.946-.882-9.076 2.58-14.235 9.937-6.305 18.918-6.88 26.085z"/><path d="M35.992 22.776c3.59.707 9.399 3.729 9.399 3.729 1.336-1.442 4.179-4.81 5.198-5.987C52.996 17.74 57.235 13 60.514 9.536c4.314-4.558 8.023-7.012 11.71-6.699m-.497 103.077c.233 2.668 2.112 5.413 2.663 6.59s1.41 4.708 0 5.335M3.978 23.759c-.388 3.071.564 9.186 1.995 8.727l7.636-2.424c.618-.238.323-1.579.323-3.286 0-1.939-.132-4.17 1.145-8.315 1.569-5.091 2.377-9.037 7.938-13.077"/><path d="M13.878 24.457c-2.034.27-3.391.639-5.482 1.294-2.358.738-3.482 1.604-4.15 1.886M2.762 77.574c.471.001 9.611.79 10.085.395s5.835 1.024 6.623 1.813c.631.631 1.892 2.523 2.444 3.39v14.111c0 1.025-4.335 5.834-6.148 6.307s-6.542 0-7.803 0H1.656"/><path d="M12.693 78.522c-.633 2.522-1.498 18.053-.947 20.496.441 1.955.448 4.335.396 5.281m-10.447 6.998c2.079 1.076 35.141 3.156 46.829 2.654l25.888-1.005m7.1.79h-6.168"/></svg>