<svg xmlns="http://www.w3.org/2000/svg" width="112" height="99" fill="none" xmlns:v="https://vecta.io/nano"><g clip-path="url(#A)" stroke="#646464"><path d="M77.266 4.476l.008-.004.008-.004c7.765-4.338 19.284-3.99 26.825.806 2.566 1.732 4.655 4.132 5.69 6.787v.009l.031.084c2.62 7.106 2.312 16.542-1.948 22.788-1.843 2.367-4.307 4.122-6.894 5.198h0l-.005.002-.258.111-.017.007-.017.009c-.835.436-2.071.756-2.448.825l-.022.004-.022.006c-8.452 2.352-17.907 1.078-24.378-4.61-5.486-5.355-5.937-13.936-4.343-21.269h0l.002-.01c.859-4.377 3.624-8.603 7.788-10.738zm19.542 24.206l.002-.008.002-.009c.302-1.734.376-3.604.383-5.441l-.015-2.372-.005-2.932.001-.032-.004-.032a32.24 32.24 0 0 1-.08-.892c-.041-.511-.085-1.05-.159-1.548-.125-.834-.348-1.688-.847-2.445l-.01-.015-.011-.014c-1.577-2.058-4.044-2.411-6.374-2.411h-.018l-.018.001c-2.187.16-4.925.761-5.928 3.345l-.007.018-.005.018c-1.076 3.546-.885 7.599-.706 11.382l.035.746.001.017.002.017.014.126c.224 1.955.491 4.29 2.502 5.702l.021.015.023.013c2.301 1.283 5.647 1.603 8.173.496 1.685-.609 2.711-2.232 3.028-3.746zm-71.116 3.989v8.647H.582l.001-8.632 5.382-.113.454-.01.034-.453.061-.812.001-.019v-.019-19.823-.455l-.453-.043c-1.325-.125-2.638-.139-3.955-.153l-1.455-.021V1.889l3.182-.053 21.823.06.043 8.924-5.368.056-.254.003-.148.207-.123.172-.092.13v.159l-.061 20.463-.001.443.44.054c.978.121 2.027.136 3.057.138h.493l2.05.026zm27.976.464l.129-.035.056-.056c.189-.104.443-.248.655-.437.236-.211.472-.525.486-.957.073-.522-.186-.951-.462-1.242a3.1 3.1 0 0 0-.963-.661l-.021-.009-.021-.007-7.49-2.314-.608-.179-7.993-2.523c-3.785-1.427-7.594-4.418-8.32-8.357l-.002-.01-.002-.01c-.974-4.289.181-9.081 3.831-11.727C38.662.492 47.556.732 53.972 3.426l2.704 1.441.487.259.211-.51c.19-.461.2-.98.194-1.401l-.006-.283-.005-.413c2.4-.097 5.214-.1 7.625-.053l.065 3.306c.069 3.204.133 6.239.061 9.54-2.029.067-4.133.058-6.106.05l-1.592-.005c-2.574-3.805-6.93-5.194-11.037-5.766l-.028-.004-.028-.001c-.318-.008-.647-.03-.996-.054l-.54-.035c-.542-.031-1.114-.05-1.669-.002-1.113.096-2.239.47-2.921 1.629l-.044.075-.016.086c-.167.888.255 1.571.818 2.049l.047.04.055.027 1.068.529.04.02.043.012 14.322 4.147.007.002.007.002c2.296.59 4.599 1.97 6.406 3.807s3.089 4.102 3.397 6.441c.624 4.879-1.644 9.389-5.9 11.738-5.924 3.056-13.664 2.513-19.728-.012l-.888-.476c-.703-.38-1.422-.769-2.133-1.099l-.678-.315-.033.746-.102 2.331-7.913.055c-.155-4.387-.104-9.375.006-13.815l7.255-.056a10.49 10.49 0 0 1 .438.686l.008.013c.188.312.396.656.651.972l.014.017.015.015c4.175 4.351 10.413 5.528 16.115 3.975zM4.484 97.556l-.002-.001c-.351-.08-.505-.175-.574-.246-.052-.053-.097-.134-.097-.329v-4.217c0-.253.066-.378.116-.433.044-.049.119-.095.268-.095H4.4c2.365.392 6.009.673 8.878.673 2.171 0 3.862-.432 4.986-1.691 1.108-1.242 1.559-3.174 1.559-5.897v-.354-.607l-.596.116c-1.256.245-3.625.593-5.631.593-3.21 0-6.069-.689-8.117-2.299-2.026-1.593-3.331-4.146-3.331-8.046v-.354c0-3.585 1.081-6.53 3.124-8.578s5.101-3.255 9.172-3.255c3.808 0 6.906 1.121 9.055 3.359s3.418 5.671 3.418 10.423v7.443c0 5.422-1.291 9.085-3.506 11.394S17.986 98.5 13.95 98.5h-.035c-4.31 0-7.489-.492-9.431-.944zm14.931-17.77l.408-.077v-.415-2.977c0-3.325-.521-5.456-1.496-6.758-1.006-1.345-2.419-1.716-3.917-1.716-1.478 0-2.823.324-3.782 1.383-.945 1.045-1.419 2.703-1.419 5.142v.354c0 2.085.617 3.516 1.708 4.409 1.071.877 2.508 1.159 3.989 1.159 1.284 0 3.37-.29 4.511-.505zM43.055 98.5c-4.021 0-7.121-1.147-9.229-3.637-2.122-2.507-3.315-6.462-3.315-12.236v-4.182c0-5.774 1.192-9.748 3.316-12.273 2.109-2.508 5.208-3.671 9.228-3.671s7.129 1.155 9.246 3.659c2.132 2.521 3.333 6.493 3.333 12.285v4.182c0 5.774-1.201 9.728-3.332 12.236-2.117 2.491-5.226 3.638-9.247 3.638zm5.307-20.055c0-3.869-.521-6.367-1.455-7.91-.474-.782-1.057-1.322-1.727-1.662s-1.389-.462-2.125-.462-1.456.125-2.116.463-1.238.882-1.703 1.664c-.915 1.542-1.418 4.039-1.418 7.906v4.182c0 3.866.502 6.347 1.419 7.873.466.775 1.04 1.307 1.705 1.64s1.379.45 2.112.45 1.455-.119 2.121-.449 1.254-.862 1.729-1.637c.936-1.526 1.457-4.008 1.457-7.877v-4.182zM71.633 98.5c-4.021 0-7.121-1.147-9.229-3.637-2.122-2.507-3.315-6.462-3.315-12.236v-4.182c0-5.774 1.192-9.748 3.316-12.273 2.109-2.508 5.208-3.671 9.228-3.671s7.129 1.155 9.246 3.659c2.132 2.521 3.333 6.493 3.333 12.285v4.182c0 5.774-1.201 9.728-3.332 12.236-2.117 2.491-5.226 3.638-9.247 3.638zm5.307-20.055c0-3.869-.521-6.367-1.455-7.91-.474-.782-1.056-1.322-1.727-1.662s-1.389-.462-2.125-.462-1.456.125-2.116.463-1.238.882-1.703 1.664c-.915 1.542-1.418 4.039-1.418 7.906v4.182c0 3.868.511 6.348 1.433 7.874.468.774 1.043 1.306 1.706 1.639s1.372.45 2.098.45 1.443-.12 2.107-.449 1.252-.862 1.73-1.636c.941-1.526 1.471-4.008 1.471-7.878v-4.182zm17.643-8.114l-6.29 2.728c-.207.089-.314.101-.368.101-.023-.036-.03-.077-.03-.138v-5.529c0-.056.006-.088.01-.103l.005-.014c.001-.001.027-.037.166-.092l.014-.006.014-.007 8.752-4.14c.265-.104.477-.136.932-.136h4.348c.253 0 .419.165.419.421v28.282.5h.5 6.433c.302 0 .49.212.49.421v4.997c0 .257-.237.492-.49.492H88.384c-.253 0-.49-.236-.49-.492v-4.997c0-.21.188-.421.49-.421h6.433 1.205l-.74-.742V70.789v-.762l-.699.303zM.5 49.5h111v5H.5z"/></g><defs><clipPath id="A"><path fill="#fff" d="M0 0h112.001v99H0z"/></clipPath></defs></svg>