<svg xmlns="http://www.w3.org/2000/svg" width="47" height="46" fill="none" xmlns:v="https://vecta.io/nano"><path d="M29.05 5.296l.299.216.369.001 6.635.026 2.075 6.302.115.35.297.218 5.352 3.921-2.025 6.318-.112.351.112.351 2.025 6.318-5.352 3.921-.297.218-.115.35-2.075 6.302-6.635.026-.369.002-.299.215-5.383 3.879-5.383-3.879-.299-.215-.369-.002-6.635-.026-2.075-6.302-.115-.35-.297-.218-5.352-3.921 2.025-6.318.113-.351-.113-.351-2.025-6.318 5.352-3.921.297-.218.115-.35 2.075-6.302 6.635-.026.369-.001.299-.216 5.383-3.879 5.383 3.879z" stroke="#c69c6d" stroke-width="2.3"/><path d="M23.292 16.1l-1.729 5.259H16l4.5 3.279-1.729 5.262 4.521-3.258 4.503 3.258-1.729-5.262 4.5-3.279H25L23.292 16.1z" fill="#c69c6d"/></svg>