<svg xmlns="http://www.w3.org/2000/svg" width="49" height="49" fill="#c69c6d" stroke="#c69c6d" stroke-width=".775" xmlns:v="https://vecta.io/nano"><path d="M6.36 12.436l-.523 1.556H4.153l1.362.958-.516 1.549 1.362-.958 1.363.958L7.2 14.95l1.369-.958H6.884l-.524-1.556zm7.571-7.638l-.523 1.549h-1.685l1.362.965-.523 1.549 1.368-.959 1.363.959-.524-1.549 1.362-.965h-1.684l-.517-1.549zM3.541 26.094l1.363.958-.524-1.555 1.369-.958H4.064L3.54 22.99l-.523 1.549H1.333l1.362.958-.516 1.555 1.362-.958zM24.336 2l-.523 1.555h-1.684l1.362.959-.523 1.555 1.368-.959 1.362.959-.523-1.555 1.361-.959h-1.684L24.336 2zm.516 43.493l-.516-1.555-.523 1.555h-1.684l1.362.959L22.968 48l1.368-.959 1.362.959-.523-1.548 1.361-.959h-1.684zM6.884 34.987l-.524-1.555-.523 1.555H4.153l1.362.959-.516 1.555 1.362-.959 1.363.959-.524-1.555 1.369-.959H6.884zm7.564 7.754l-.517-1.555-.523 1.555h-1.685l1.362.959-.523 1.555 1.368-.959 1.363.959-.524-1.555 1.362-.959h-1.684zm26.498-26.243l1.362-.958 1.369.958-.524-1.549 1.361-.958h-1.683l-.524-1.556-.516 1.556h-1.685l1.362.958-.523 1.549zm-6.205-11.7l-.524 1.549h-1.684l1.361.965-.524 1.549 1.369-.959 1.362.959-.523-1.549 1.361-.965h-1.684l-.516-1.549zm12.592 19.741H45.65l-.524-1.549-.516 1.549h-1.684l1.361.958-.523 1.555 1.362-.958 1.369.958-.524-1.555 1.361-.958zm-4.502 10.448l-.524-1.555-.516 1.555h-1.685l1.362.959-.523 1.555 1.362-.959 1.369.959-.524-1.555 1.361-.959H42.83zm-7.574 7.754l-.516-1.555-.524 1.555h-1.684l1.361.959-.524 1.555 1.369-.959 1.362.959-.523-1.555 1.361-.959h-1.684z"/></svg>