<svg xmlns="http://www.w3.org/2000/svg" width="97" height="22" fill="none" xmlns:v="https://vecta.io/nano"><g clip-path="url(#A)" fill="#fff"><path d="M36.231 21.397H31.13V0h14.074c2.813 0 5.101 2.311 5.101 5.156v3.731c0 2.136-1.331 4.077-3.312 4.826L36.23 17.79v3.609l.002-.002zm0-16.239v7.125l8.974-3.398V5.158h-8.974zm55.172 16.239H76.1V0h10.656a5.09 5.09 0 0 1 4.696 3.145l4.643 11.083a5.2 5.2 0 0 1-.444 4.857 5.06 5.06 0 0 1-4.249 2.307v.004zm-10.201-5.155h10.201L86.756 5.158H81.2v11.083h.002zm-8.041-4.866l-10.9-4.131v5.505l5.802 2.197v1.292h-9.719l.019-11.083h13.764V0H58.363c-2.824 0-5.121 2.321-5.121 5.175v11.064c0 2.843 2.287 5.156 5.101 5.156h9.723a5.03 5.03 0 0 0 3.606-1.512c.966-.976 1.496-2.268 1.492-3.648v-4.864l-.004.008v-.002zM20.919 0H10.71v6.927h10.209V0zM7.354 0H.5v6.927h6.854V0zm0 10.317H.5v3.898c0 1.116.589 2.146 1.542 2.701l5.313 3.116v-9.715zm3.355 0v11.681l8.667-5.08a3.13 3.13 0 0 0 1.542-2.701v-3.898H10.709v-.004.002z"/></g><defs><clipPath id="A"><path fill="#fff" transform="translate(.5)" d="M0 0h96v22H0z"/></clipPath></defs></svg>