<svg xmlns="http://www.w3.org/2000/svg" width="1180" height="70" fill="none" xmlns:v="https://vecta.io/nano"><path d="M.315 70V.002h39.879c1.959 0 3.638.7 5.037 2.099l5.772 5.772c1.469 1.469 2.204 3.218 2.204 5.247v16.371c0 2.029-.735 3.778-2.204 5.247l-5.772 5.772c-1.399 1.399-3.113 2.099-5.142 2.099H12.909V70H.315zm12.593-39.354h22.668c.56 0 1.05-.21 1.469-.63l2.938-2.938c.42-.42.63-.91.63-1.469v-8.501c0-.56-.21-1.05-.63-1.469L37.046 12.7c-.42-.42-.91-.63-1.469-.63H12.909v18.575zM67.136 70V.002h39.879c1.959 0 3.638.7 5.038 2.099l5.772 5.772c1.469 1.469 2.203 3.218 2.203 5.247v16.371c0 2.029-.734 3.778-2.203 5.247l-5.772 5.772c-1.4 1.399-3.114 2.099-5.143 2.099h-1.679L125.171 70h-14.273L91.903 43.344c-.35-.49-.944-.735-1.784-.735H79.73V70H67.136zM79.73 30.646h22.668c.559 0 1.049-.21 1.469-.63l2.938-2.938c.42-.42.63-.91.63-1.469v-8.501c0-.56-.21-1.05-.63-1.469l-3.043-3.043c-.42-.42-.91-.63-1.469-.63H79.73v18.68zm64.285 37.151l-8.605-8.605c-1.47-1.469-2.204-3.218-2.204-5.247V16.058c0-2.029.734-3.778 2.204-5.247l8.605-8.606c1.469-1.469 3.218-2.204 5.247-2.204h26.657c2.028 0 3.778.735 5.247 2.204l8.605 8.606c1.47 1.469 2.204 3.218 2.204 5.247v37.885c0 2.029-.734 3.778-2.204 5.247l-8.605 8.605c-1.469 1.469-3.219 2.204-5.247 2.204h-26.657c-2.029 0-3.778-.735-5.247-2.204zm2.309-15.007l4.513 4.513a2.01 2.01 0 0 0 1.469.63h20.569a2.01 2.01 0 0 0 1.469-.63l4.513-4.513c.35-.35.525-.84.525-1.469V18.682c0-.63-.175-1.119-.525-1.469l-4.513-4.513a2.01 2.01 0 0 0-1.469-.63h-20.569a2.01 2.01 0 0 0-1.469.63l-4.513 4.513c-.35.35-.525.84-.525 1.469V51.32c0 .63.175 1.12.525 1.469zM218.79 70V12.07h-20.149V.002h52.892V12.07h-20.149V70H218.79zm42.249 0V.002h46.281V12.07h-33.688v16.896h33.688v12.069h-33.688v16.896h33.688V70h-46.281zm71.754-2.204l-8.606-8.605c-1.469-1.469-2.204-3.218-2.204-5.247V16.058c0-2.029.735-3.778 2.204-5.247l8.606-8.606C334.262.736 336.011.002 338.04.002h24.452c2.029 0 3.778.735 5.247 2.204l10.81 10.809-8.711 8.606-8.92-8.92c-.42-.42-.91-.63-1.469-.63h-18.366c-.559 0-1.049.21-1.469.63l-4.513 4.513c-.349.35-.524.84-.524 1.469V51.32c0 .63.175 1.12.524 1.469l4.513 4.513c.42.42.91.63 1.469.63h18.366c.559 0 1.049-.21 1.469-.63l8.92-8.92 8.711 8.606-10.81 10.809C366.27 69.265 364.521 70 362.492 70H338.04c-2.029 0-3.778-.735-5.247-2.204zM404.597 70V12.07h-20.15V.002h52.892V12.07H417.19V70h-12.593zm49.07 0L441.703.002h12.803l9.34 58.035L474.341.002h17.946l10.389 58.454 9.55-58.454h12.384L512.436 70h-18.575l-10.6-61.498L472.662 70h-18.995zm83.468 0V.002h12.593v28.965h27.706V.002h12.593V70h-12.593V41.035h-27.706V70h-12.593zm63.164 0L623.597.002h19.415L666.414 70h-13.118l-5.667-16.896h-29.07L613.102 70h-12.803zm22.143-28.65h21.409L633.147 8.502 622.442 41.35zM685.1 70V12.07h-20.15V.002h52.893V12.07h-20.15V70H685.1zm42.248 0V.002h21.409l15.112 54.991L778.876.002h21.094V70h-12.278V8.082L770.586 70h-13.853L739.732 8.082V70h-12.384zm82.944 0L833.59.002h19.415L876.408 70h-13.119l-5.667-16.896h-29.07L823.095 70h-12.803zm22.143-28.65h21.409L843.14 8.502 832.435 41.35zM895.093 70V12.07h-20.15V.002h52.893V12.07h-20.15V70h-12.593zm57.289 0V12.07h-20.149V.002h52.892V12.07h-20.149V70h-12.594zm42.249 0V.002h46.279V12.07h-33.69v16.896h33.69v12.069h-33.69v16.896h33.69V70h-46.279zm62.409 0V.002h39.88c1.96 0 3.64.7 5.04 2.099l5.77 5.772c1.47 1.469 2.21 3.218 2.21 5.247v16.371c0 2.029-.74 3.778-2.21 5.247l-5.77 5.772c-1.4 1.399-3.11 2.099-5.14 2.099h-1.68L1115.08 70h-14.27l-19-26.656c-.35-.49-.94-.735-1.78-.735h-10.39V70h-12.6zm12.6-39.354h22.67c.56 0 1.05-.21 1.47-.63l2.93-2.938c.42-.42.63-.91.63-1.469v-8.501c0-.56-.21-1.05-.63-1.469l-3.04-3.043c-.42-.42-.91-.63-1.47-.63h-22.56v18.68zm108.67 8.396l-.1 14.902c0 2.029-.73 3.778-2.2 5.247l-8.61 8.605c-1.47 1.469-3.22 2.204-5.25 2.204h-25.71c-2.03 0-3.78-.735-5.25-2.204l-10.81-10.809 8.72-8.605 8.92 8.92c.42.42.91.63 1.46.63h19.63c.56 0 1.05-.21 1.47-.63l4.51-4.513c.35-.35.53-.84.53-1.469v-6.507c0-.49-.21-.944-.63-1.364-.35-.42-.81-.665-1.37-.735l-34.63-4.408c-1.89-.28-3.46-1.084-4.72-2.414a7.13 7.13 0 0 1-1.89-4.932V16.058c0-2.029.73-3.778 2.2-5.247l8.61-8.606c1.47-1.469 3.22-2.204 5.25-2.204h24.76c2.03 0 3.78.735 5.25 2.204l10.7 10.809-8.6 8.711-8.92-9.025c-.42-.42-.91-.63-1.47-.63h-18.68c-.56 0-1.05.21-1.47.63l-4.41 4.408c-.42.42-.63.909-.63 1.469v6.612c0 .49.18.944.53 1.364.42.42.91.665 1.47.735l34.73 4.408c1.89.28 3.47 1.119 4.73 2.519 1.25 1.329 1.88 2.938 1.88 4.827z" fill="#c69c6d"/></svg>